<svg xmlns="http://www.w3.org/2000/svg" viewBox="425 205 592 370" fill="none">
  <defs>
    <filter id="shadow-flat" x="256" y="166" width="1024" height="640" filterUnits="userSpaceOnUse" color-interpolation-filters="sRGB">
      <feDropShadow dx="0" dy="10" stdDeviation="10" flood-color="#121212" flood-opacity="0.16" />
    </filter>
    <linearGradient id="flame-outer-gradient" x1="50%" x2="50%" y1="0%" y2="100%">
      <stop offset="0%" stop-color="#F43F5E" />
      <stop offset="52%" stop-color="#EF4444" />
      <stop offset="100%" stop-color="#F97316" />
    </linearGradient>
    <radialGradient id="flame-inner-gradient" cx="50%" cy="62%" r="54%">
      <stop offset="0%" stop-color="#FBBF24" />
      <stop offset="58%" stop-color="#F97316" />
      <stop offset="100%" stop-color="#FB923C" />
    </radialGradient>
    <symbol id="heat-flame" viewBox="0 0 100 160">
      <path d="M54 12c15 18 24 40 24 62 0 31-18 58-42 81C12 132-2 106-2 76c0-23 10-45 28-64 1 13 7 25 17 38 3-18 7-31 11-38Z" fill="url(#flame-outer-gradient)" />
      <path d="M43 44c10 11 16 25 16 40 0 22-12 40-28 55C16 127 7 110 7 91c0-16 7-31 19-45 1 10 5 19 11 28 3-13 5-23 6-30Z" fill="url(#flame-inner-gradient)" />
    </symbol>
  </defs>

  <g filter="url(#shadow-flat)">
    <rect x="524" y="214" width="484" height="352" rx="34" fill="#1C1C1C" stroke="#F97316" stroke-width="18" />
    <rect x="566" y="258" width="400" height="264" rx="26" fill="#242424" stroke="#121212" stroke-opacity="0.24" stroke-width="6" />
    <g transform="translate(586 220) scale(5.6)">
      <path d="M25 25c0-4 3-7 7-7s7 3 7 7c0 3-2 5-5 7-2 1-3 2-3 4" stroke="#121212" stroke-opacity="0.42" stroke-width="4" stroke-linecap="round" fill="none" />
      <circle cx="32" cy="45" r="3" fill="#121212" fill-opacity="0.42" />
    </g>

    <g transform="translate(86 0)">
      <circle cx="438" cy="410" r="92" fill="#242424" stroke="#121212" stroke-width="12" />
      <circle cx="438" cy="410" r="70" stroke="#F97316" stroke-width="24" stroke-linecap="round" stroke-dasharray="332 108" transform="rotate(-92 438 410)" />
      <rect x="424" y="296" width="28" height="18" rx="9" fill="#FFFFFF" />
      <path d="M404 314h68" stroke="#FFFFFF" stroke-width="9" stroke-linecap="round" />
      <path d="M392 338l-14-16" stroke="#FFFFFF" stroke-width="8" stroke-linecap="round" />
      <path d="M484 338l14-16" stroke="#FFFFFF" stroke-width="8" stroke-linecap="round" />
      <circle cx="438" cy="410" r="48" stroke="#FFFFFF" stroke-width="10" />
      <path d="M438 382v30l22 17" stroke="#FFFFFF" stroke-width="12" stroke-linecap="round" stroke-linejoin="round" />
    </g>

    <use href="#heat-flame" x="838" y="498" width="46" height="68" />
    <use href="#heat-flame" x="856" y="430" width="92" height="136" />
    <use href="#heat-flame" x="904" y="484" width="54" height="82" />
    <use href="#heat-flame" x="914" y="464" width="68" height="102" />

  </g>
</svg>
